8888888888                888      8888888888                       
888                       888      888                              
888                       888      888                              
8888888  .d88b.   .d88b.  888      8888888 888d888 .d88b.   .d88b.  
888     d8P  Y8b d8P  Y8b 888      888     888P"  d8P  Y8b d8P  Y8b 
888     88888888 88888888 888      888     888    88888888 88888888 
888     Y8b.     Y8b.     888      888     888    Y8b.     Y8b.     
888      "Y8888   "Y8888  888      888     888     "Y8888   "Y8888  


Genre:Action | Crime | Mystery 
Language:English
IMDb: 
http://www.imdb.com/title/tt1599348
Source:1080p.BluRay.X264-BLOW Thanks!
Encoder:Tony

Format : MPEG-4
Format profile : Base Media
Codec ID : isom
File size : 2.71 GiB
Duration : 1h 54mn
Overall bit rate mode : Variable
Overall bit rate : 3 380 Kbps

Video
ID : 1
Format : AVC
Format/Info : Advanced Video Codec
Format profile : High@L4.1
Format settings, CABAC : Yes
Format settings, ReFrames : 8 frames
Codec ID : avc1
Codec ID/Info : Advanced Video Coding
Duration : 1h 54mn
Bit rate : 3 000 Kbps
Maximum bit rate : 22.1 Mbps
Width : 1 280 pixels
Height : 536 pixels
Display aspect ratio : 2.40:1
Frame rate mode : Constant
Frame rate : 23.976 fps
Color space : YUV
Chroma subsampling : 4:2:0
Bit depth : 8 bits
Scan type : Progressive
Bits/(Pixel*Frame) : 0.182
Stream size : 2.35 GiB (87%)
Writing library : x264

Audio
ID : 2
Format : AAC
Format/Info : Advanced Audio Codec
Format profile : LC
Codec ID : 40
Duration : 1h 54mn
Bit rate mode : Variable
Bit rate : 444 Kbps
Maximum bit rate : 517 Kbps
Channel(s) : 6 channels
Channel positions : Front: L C R, Side: L R, LFE
Sampling rate : 48.0 KHz
Compression mode : Lossy
Stream size : 365 MiB (13%)

Plot:
A young CIA agent is tasked with looking after a fugitive in a safe house. But when the safe house is attacked, he finds himself on the run with his charge

Screen Shots:
            
http://img805.imageshack.us/img805/8239/vlcsnap2012052818h37m57.png
 
http://img155.imageshack.us/img155/5793/vlcsnap2012052818h39m33.png
 
http://img850.imageshack.us/img850/4295/vlcsnap2012052818h38m17.png
 
http://img233.imageshack.us/img233/9462/vlcsnap2012052818h38m42.png
 
http://img716.imageshack.us/img716/6316/vlcsnap2012052818h41m36.png
 
http://img717.imageshack.us/img717/3033/vlcsnap2012052818h40m01.png


8888888888                888      8888888888                       
888                       888      888                              
888                       888      888                              
8888888  .d88b.   .d88b.  888      8888888 888d888 .d88b.   .d88b.  
888     d8P  Y8b d8P  Y8b 888      888     888P"  d8P  Y8b d8P  Y8b 
888     88888888 88888888 888      888     888    88888888 88888888 
888     Y8b.     Y8b.     888      888     888    Y8b.     Y8b.     
888      "Y8888   "Y8888  888      888     888     "Y8888   "Y8888  